<svg xmlns="http://www.w3.org/2000/svg" viewBox="0 0 1175.59 1071.43"><defs><style>.cls-1{fill:none;stroke:#000;stroke-miterlimit:10;stroke-width:13px;}</style></defs><title>logo</title><g id="Layer_2" data-name="Layer 2"><g id="Layer_1-2" data-name="Layer 1"><path class="cls-1" d="M1114.64,367.64A273.63,273.63,0,0,0,942.81,307.3C791,307.3,668,430.32,668,582.08S791,856.87,942.81,856.87a274.51,274.51,0,0,0,227.41-120.49"/><path class="cls-1" d="M896.66,810.5a260.6,260.6,0,0,0,215.89-114.38"/><path class="cls-1" d="M896.66,288.77a261.25,261.25,0,0,0-67.23,8.75C717.94,327.17,635.79,428.81,635.79,549.64"/><polyline class="cls-1" points="693.46 703.55 477.58 813.53 477.58 813.53 310.59 284.03"/><polyline class="cls-1" points="583.48 622.09 449.07 227.01 310.59 284.03 74.35 866.48"/><polyline class="cls-1" points="347.24 577.29 286.15 736.14 94.71 813.53"/><path class="cls-1" d="M954.59,856.62c-95,125.41-251.68,208.32-418.87,208.32"/><path class="cls-1" d="M59.51,766.85a527.09,527.09,0,0,1-53-231.13C6.5,243.44,243.44,6.5,535.72,6.5,748,6.5,931,136.63,1015.36,317"/></g></g></svg>